                      =!DK GROUP HD BLURAY RELEAESEES!=
 
===================================================================================


               	
    Hulk(2003)Extended Verson 1080p BDRip[HIndi-Eng-Tamil]6CH-AC3 By !!!dip


===================================================================================

Storyline:

Bruce Banner, a brilliant scientist with a cloudy past about his family, is involved in an accident in his laboratory causing him to become exposed to gamma radiation and Nanomeds (A tiny life-form that is supposed to heal wounds but has killed everything with which they have made contact). Confused and curious about his survival, Banner discovers that since the accident, whenever he becomes angry he transforms into a giant green monster destroying everything in sight in an act of fury. Bruce's mysterious past and the answer to why the radiation had this effect becomes revealed to him as his Birth Father David Banner intervenes with hopes to continue experimenting on him. Written by Séamus Hanly 

Cast:

Eric Bana	 ...	Bruce Banner
Jennifer Connelly...	Betty Ross
Sam Elliott	 ...	Ross
Josh Lucas	 ...	Talbot
Nick Nolte	 ...	Father
Paul Kersey	 ...	Young David Banner
Cara Buono	 ...	Edith Banner
Todd Tesen	 ...	Young Ross
Kevin Rankin	 ...	Harper
Celia Weston	 ...	Mrs. Krensler
Mike Erwin	 ...	Teenage Bruce Banner
Lou Ferrigno	 ...	Security Guard
Stan Lee	 ...	Security Guard
Regi Davis	 ...	Security Guard
Craig Damon	 ...	Security Guard


Directors :Ang Lee
Writers :Stan Lee (Marvel comic book character), Jack Kirby (Marvel comic book character)
Stars: Eric Bana, Jennifer Connelly and Sam Elliott
Genre: Action | Sci-Fi
Language:[English-Hindi-Tamil]
Format :Color, Dubbed,Widescreen
Release Date:20 June 2003 (USA)
SUBTITLE:English
Encoder:Deep Shikha



Video Specifications:

Video
ID : 1
Format : AVC
Format/Info : Advanced Video Codec
Format profile : Main@L4.0
Format settings, CABAC : Yes
Format settings, ReFrames : 4 frames
Muxing mode : Header stripping
Codec ID : V_MPEG4/ISO/AVC
Duration : 2h 12mn
Bit rate : 2 071 Kbps
Width : 1 920 pixels
Height : 800 pixels
Display aspect ratio : 16:9
Frame rate mode : Variable
Frame rate : 25.000 fps
Color space : YUV
Chroma subsampling : 4:2:0
Bit depth : 8 bits
Scan type : Progressive
Bits/(Pixel*Frame) : 0.054
Stream size : 1.92 GiB (81%)
Title : !!!dip
Team : DK Group HD Bluray Releases


Audio Specifications:


Audio
ID : 1
Format : AC-3
Format/Info : Audio Coding 3
Mode extension : CM (complete main)
Muxing mode : Header stripping
Codec ID : A_AC3
Duration : 2h 12mn
Bit rate mode : Constant
Bit rate : 448 Kbps
Channel(s) : 6 channels
Channel positions : Front: L C R, Side: L R, LFE
Sampling rate : 48.0 KHz
Bit depth : 16 bits
Compression mode : Lossy
Stream size : 425 MiB (17%)
Title : !!!dip
Language : English

Audio
ID : 2
Format : AC-3
Format/Info : Audio Coding 3
Mode extension : CM (complete main)
Muxing mode : Header stripping
Codec ID : A_AC3
Duration : 2h 12mn
Bit rate mode : Constant
Bit rate : 448 Kbps
Channel(s) : 6 channels
Channel positions : Front: L C R, Side: L R, LFE
Sampling rate : 48.0 KHz
Bit depth : 16 bits
Compression mode : Lossy
Stream size : 424 MiB
Title : !!!dip
Language : Hindi


Text
ID : 3
Format : UTF-8
Codec ID : S_TEXT/UTF8
Codec ID/Info : UTF-8 Plain Text
Title : !!!dip
Language : English



SAMPLE IMAGE:
       
http://imagestorage.org/images/96169789071687233534.jpg
 
http://imagestorage.org/images/75872421224053815310.jpg
 
http://imagestorage.org/images/53193970132198269488.jpg
 
http://imagestorage.org/images/43101980137743263976.jpg
 
http://imagestorage.org/images/18554110864370769401.jpg
 
http://imagestorage.org/images/06581723986473325328.jpg


VIDEO SAMPLE IS AVAILABLE	